<svg xmlns="http://www.w3.org/2000/svg" viewBox="0 0 500 500"><g id="freepik--background-complete--inject-64"><path d="M455.52,190.36a60.37,60.37,0,1,1-84.9-8A60.31,60.31,0,0,1,455.52,190.36Z" style="fill:#f5f5f5"></path><path d="M444.44,199.51a46,46,0,1,1-64.7-6.12A46,46,0,0,1,444.44,199.51Z" style="fill:#ebebeb"></path><path d="M443.51,198.4c-.21.19-1.64-1.25-4.46-3.49a48.74,48.74,0,0,0-13.07-7.5,46.9,46.9,0,0,0-10-2.57,46.11,46.11,0,0,0-11.82-.09,41.64,41.64,0,0,0-6.28,1.22,43.38,43.38,0,0,0-6.28,2.19,45.68,45.68,0,0,0-6.09,3.23,44.48,44.48,0,0,0-10.63,9.35,44.27,44.27,0,0,0-4,5.63,42.38,42.38,0,0,0-3,5.95,41.87,41.87,0,0,0-2,6.07,46.08,46.08,0,0,0-1.41,11.73,47.52,47.52,0,0,0,1.27,10.27,48.85,48.85,0,0,0,5.77,13.91c1.87,3.08,3.11,4.68,2.89,4.87s-1.74-1.17-4-4.1a42.37,42.37,0,0,1-7-14,46.12,46.12,0,0,1-.6-23.4,43.42,43.42,0,0,1,2-6.56,45,45,0,0,1,3.13-6.45,45.85,45.85,0,0,1,4.25-6.11,47,47,0,0,1,11.46-10.08,47.68,47.68,0,0,1,6.6-3.44,47,47,0,0,1,13.57-3.47,46.86,46.86,0,0,1,12.62.44,46,46,0,0,1,10.51,3.15,42.67,42.67,0,0,1,13,8.77C442.58,196.52,443.67,198.27,443.51,198.4Z" style="fill:#e0e0e0"></path><path d="M430.44,246.64l5.19,6.11-5.45,4.63-5.05-5.94c-5.68,4.26-12.29,7-17.28,7.17l-2.66-9.2a28.89,28.89,0,0,0,13.87-5.12l-7.74-9.1c-7.3,3.67-15.78,7.4-22.4-.4-4.92-5.77-4.93-14.3,2.84-22.6l-5.14-6.06,5.45-4.63,5.05,5.94c4.37-3.14,9.28-5.44,13.9-6.08l3,9a29.41,29.41,0,0,0-10.75,4.26l7.88,9.27c7.25-3.73,15.62-7.36,22.15.32C438.09,229.9,438.12,238.33,430.44,246.64Zm-25.93-19.46-6.58-7.74c-2.34,3.11-2.14,5.66-.61,7.46S401.46,228.45,404.51,227.18Zm20.54,5.17c-1.62-1.91-4.08-1.6-7.12-.43l6.39,7.52C426.54,236.53,426.53,234.09,425.05,232.35Z" style="fill:#e0e0e0"></path><path d="M471.3,108a35.28,35.28,0,1,1-31.55-38.57A35.24,35.24,0,0,1,471.3,108Z" style="fill:#f5f5f5"></path><path d="M463,107.16A26.89,26.89,0,1,1,438.9,77.77,26.86,26.86,0,0,1,463,107.16Z" style="fill:#ebebeb"></path><path d="M463,106.32c-.16,0-.16-1.2-.38-3.29a28.71,28.71,0,0,0-2.26-8.51,27.44,27.44,0,0,0-3.05-5.22,27,27,0,0,0-4.82-5,26.5,26.5,0,0,0-6.58-3.81,25.23,25.23,0,0,0-3.84-1.2,26,26,0,0,0-8.25-.58,26,26,0,0,0-4,.66,24.64,24.64,0,0,0-3.7,1.21,24.16,24.16,0,0,0-3.34,1.66,26.85,26.85,0,0,0-5.46,4.23,27.94,27.94,0,0,0-3.74,4.75,28.76,28.76,0,0,0-3.41,8.11c-.51,2.05-.67,3.22-.83,3.21s-.23-1.21,0-3.36a24.9,24.9,0,0,1,2.94-8.7,27.46,27.46,0,0,1,3.77-5.18,27.07,27.07,0,0,1,5.71-4.68,27.11,27.11,0,0,1,7.53-3.2,27.14,27.14,0,0,1,4.28-.75,30.39,30.39,0,0,1,4.48,0,30.72,30.72,0,0,1,4.43.67,28,28,0,0,1,4.13,1.33,26.84,26.84,0,0,1,3.75,1.89,26.25,26.25,0,0,1,3.27,2.32,27.54,27.54,0,0,1,5,5.43,27.14,27.14,0,0,1,3,5.66,25.14,25.14,0,0,1,1.71,9C463.43,105.16,463.15,106.33,463,106.32Z" style="fill:#e0e0e0"></path><path d="M437.61,120.71l-.4,4.67L433,125l.4-4.54c-4.1-.61-7.95-2.24-10.09-4.23l2.73-4.89a16.85,16.85,0,0,0,7.83,3.66l.6-7c-4.52-1.52-9.56-3.51-9-9.47.38-4.41,3.92-7.93,10.56-8.1l.41-4.63,4.16.36-.39,4.54A18.83,18.83,0,0,1,448.44,94L445.92,99a17.17,17.17,0,0,0-6.19-2.72l-.61,7.08c4.53,1.49,9.48,3.47,9,9.34C447.71,117,444.22,120.49,437.61,120.71ZM435,101.94l.51-5.91c-2.25.3-3.22,1.44-3.34,2.81S433.26,101.2,435,101.94Zm6.3,10.66c.13-1.46-1-2.35-2.75-3.13l-.5,5.74C440.21,114.94,441.22,113.93,441.34,112.6Z" style="fill:#e0e0e0"></path><path d="M40.73,371.63a32.92,32.92,0,0,0-14-4.83c-2.3-.24-4.81-.17-6.65,1.22a1.36,1.36,0,0,0-.69,1.21,1.49,1.49,0,0,0,.65.83c5.72,4.37,14.37,4.92,20.74,1.57" style="fill:#e0e0e0"></path><path d="M40.37,371.24a69.79,69.79,0,0,1-9.08-8,23.07,23.07,0,0,1-5.69-10.53,4.25,4.25,0,0,1,.45-3.52c7.24,5.65,12.92,13,14.32,22" style="fill:#e0e0e0"></path><path d="M40.66,371.58a32.7,32.7,0,0,1,.17-11.92,16.09,16.09,0,0,1,6.34-9.84c1.26,2.93.72,6.29-.16,9.35a45.23,45.23,0,0,1-6.3,13.25" style="fill:#e0e0e0"></path><path d="M47.75,384.29c-4.31.53-8.06,2.8-11.27,5.71A21.29,21.29,0,0,0,30,401.07c4.22-.26,7.81-3.24,10.41-6.58s4.4-7,7.25-10.13" style="fill:#e0e0e0"></path><path d="M49.29,386.33A27.81,27.81,0,0,1,52.5,360c2.46,8.72,1.56,18.58-3.21,26.3" style="fill:#e0e0e0"></path><path d="M58.67,397.49a20.11,20.11,0,0,0-19.23,11.06c-.24.48-.45,1.08-.13,1.51a1.44,1.44,0,0,0,1.28.37c3.79-.24,7.14-2.52,9.91-5.12s5.19-5.59,8.25-7.83" style="fill:#e0e0e0"></path><path d="M58.37,396.88a35.81,35.81,0,0,1-.36-20c.7-2.57,1.89-5.28,4.27-6.49a.85.85,0,0,1,.65-.12.89.89,0,0,1,.41.48,12,12,0,0,1,1,5.74,35.8,35.8,0,0,1-.9,5.81c-.75,3.55-1.15,7.36-3.1,10.42A23,23,0,0,0,59.12,395c-.37.78-.37,1.06-.71,1.68" style="fill:#e0e0e0"></path><path d="M83.18,400.58c-1.84-7,.11-15.47,4.52-21.21.32-.42.75-.87,1.28-.82.81.07,1,1.15,1,2a38.33,38.33,0,0,1-6.79,20.06" style="fill:#e0e0e0"></path><path d="M85.42,402.11a30.82,30.82,0,0,0,25.3-5.15A20.47,20.47,0,0,0,97,395.28c-4.57,1-8.76,3.09-11.6,6.83" style="fill:#e0e0e0"></path><path d="M87.3,397.45c4.76-7.76,13.88-12.82,23-13.28-1,3.69-4.08,6.57-7.51,8.3s-7.25,2.5-11,3.23c-1.46.28-3.48.6-4.43,1.75" style="fill:#e0e0e0"></path><path d="M83.65,374.86a66.51,66.51,0,0,0,2.94-13.45c.35-4.59-.3-9.38-2.68-13.31-4.44,8.6-4.89,18.65-.39,27.22" style="fill:#e0e0e0"></path><path d="M98.62,367.29c5.19-9.44,15.8-17,26.53-18-4.14,10.3-15.43,18.27-26.53,18" style="fill:#e0e0e0"></path><path d="M95.35,369.15c7.75,1.18,14.35,6.13,21.59,9.13a9.69,9.69,0,0,0,4.89.93,3.82,3.82,0,0,0,2.39-6.76,10.37,10.37,0,0,0-3.55-2.15c-7.89-3.29-16.35-3.37-24.66-1.38" style="fill:#e0e0e0"></path><path d="M90.86,374.58c1.75.5,2.35,1.41,3.74,2.6A40.45,40.45,0,0,0,111,385.59c.63.16,1.45.22,1.76-.35s-.07-1.09-.42-1.53a22.49,22.49,0,0,0-9.89-6.71c-3.78-1.41-7.06-3.11-11.57-2.74" style="fill:#e0e0e0"></path><path d="M85.8,341.75a31,31,0,0,0,23.76,8.08,1.63,1.63,0,0,0,1.08-.39c.6-.65-.12-1.65-.81-2.19-7-5.45-15.45-7.71-24-5.5" style="fill:#e0e0e0"></path><path d="M91.8,339.55a33.1,33.1,0,0,1,29.65-4.89,23.5,23.5,0,0,1-14.13,6.2,44.68,44.68,0,0,1-15.52-1.31" style="fill:#e0e0e0"></path><path d="M89.41,324.46c-.68-7-.24-12.48-.72-19.48,0-.56-.16-1.24-.68-1.44-.73-.28-1.34.62-1.58,1.36a22.34,22.34,0,0,0,3,19.41" style="fill:#e0e0e0"></path><path d="M88.91,325.23A40.86,40.86,0,0,0,100.46,314c2.29-3.13,4.21-6.87,3.69-10.7a11,11,0,0,0-8.33,4.14A23.21,23.21,0,0,0,91.57,316c-.92,3.06-1.57,6.22-2.66,9.23" style="fill:#e0e0e0"></path><path d="M100.26,322.08a93.18,93.18,0,0,0,28.43-16.76c-3.39-1.37-7.28-.55-10.68.82A33.71,33.71,0,0,0,100.11,322" style="fill:#e0e0e0"></path><path d="M92.1,329.05c5.25.57,10.58.95,15.79.07s10-2.88,14.74-4.89a1.8,1.8,0,0,0,1-.76,1.14,1.14,0,0,0-.36-1.26,2.93,2.93,0,0,0-1.26-.59c-5.2-1.46-10.81-.78-15.92.95a73.35,73.35,0,0,0-14,6.48" style="fill:#e0e0e0"></path><path d="M62.14,342c-3.58-7.23-3.35-15.67-.26-23.12,2.18,3.32,2.45,7.55,2,11.5s-1.6,8-1.68,12" style="fill:#e0e0e0"></path><path d="M47.83,334.77A32.25,32.25,0,0,0,23.88,345,22.34,22.34,0,0,0,37,342.54,66.78,66.78,0,0,0,48.24,335" style="fill:#e0e0e0"></path><path d="M38.22,331.55c-4.38-.35-8.58-.89-12.79.4a15.33,15.33,0,0,0-9.74,8.26,23.08,23.08,0,0,0,12-2.26,68.5,68.5,0,0,0,10.55-6.4" style="fill:#e0e0e0"></path><path d="M52.46,331.7c-3.94-2.58-8-5.2-12.56-6.27s-9.89-.28-13.08,3.18c3.7,2.17,8.2,2.43,12.5,2.42s9.57,0,13.63,1.39" style="fill:#e0e0e0"></path><path d="M52.48,331.91c-6.73-6.6-9.28-18.47-6.57-27.5a41.9,41.9,0,0,1,6.57,27.5" style="fill:#e0e0e0"></path><path d="M71,313.2c1.27-2.95,2.16-6.05,3.3-9.05a26.12,26.12,0,0,1,4.7-8.34,12.44,12.44,0,0,1,8.33-4.32,33.52,33.52,0,0,1-16.16,21.75" style="fill:#e0e0e0"></path><path d="M67.63,317.1c-2.1-2.89-4.53-6.82-7.37-9s-6.56-3.46-10-2.64a23.37,23.37,0,0,0,17.4,11.61" style="fill:#e0e0e0"></path><path d="M68.3,313.44A49.34,49.34,0,0,1,65,302.69a16.73,16.73,0,0,1,1.68-10.92c3.69,7,4.88,14.47,1.82,21.75" style="fill:#e0e0e0"></path><path d="M71,291.77c2.09-6.92,8.42-12,15.26-14.35A5.78,5.78,0,0,1,89,277a2.33,2.33,0,0,1,2,1.65c.25,1.18-.72,2.23-1.63,3A52.09,52.09,0,0,1,71,291.77" style="fill:#e0e0e0"></path><path d="M71.08,286.11c.27-4.46.55-9,2-13.22s4.25-8.19,8.31-10c.7,4.51-1.29,9-3.69,12.87s-5.29,7.53-6.73,11.86" style="fill:#e0e0e0"></path><path d="M71,289.18c-1.73-5-1.9-11.45-4.92-15.84-2.11-3.07-5.49-5.16-7.31-8.42a12.83,12.83,0,0,0,.42,9.56,27.64,27.64,0,0,0,5.59,8c2.23,2.39,4.15,4.18,6.22,6.71" style="fill:#e0e0e0"></path><path d="M71,437.67c-.14,0-.25-33.64-.26-75.12s.09-75.13.22-75.13.25,33.63.26,75.13S71.14,437.67,71,437.67Z" style="fill:#e0e0e0"></path><path d="M100.4,336.91a7.13,7.13,0,0,1-1.26.47l-3.48,1.18c-2.94,1-7,2.45-11.35,4.24s-8.41,3.37-10.74,5.38A7.94,7.94,0,0,0,71.41,351c-.33.79-.39,1.27-.44,1.26a1.16,1.16,0,0,1,0-.35,5.19,5.19,0,0,1,.24-1,7.68,7.68,0,0,1,2.11-3A18.81,18.81,0,0,1,78,345c1.87-.87,3.94-1.78,6.13-2.68,4.39-1.8,8.45-3.2,11.42-4.12,1.48-.46,2.69-.8,3.53-1A7.11,7.11,0,0,1,100.4,336.91Z" style="fill:#e0e0e0"></path><path d="M110,313.24s-.12.15-.36.38l-1.08,1-4,3.66L91.16,330.24c-5.23,4.66-9.76,9.11-12.89,12.46-1.57,1.68-2.81,3.06-3.65,4l-1,1.11a1.79,1.79,0,0,1-.36.37,2.15,2.15,0,0,1,.29-.43c.2-.27.5-.67.9-1.17.8-1,2-2.43,3.54-4.14a169.83,169.83,0,0,1,12.83-12.6c5.25-4.64,10-8.82,13.51-11.83l4.13-3.55,1.14-.94A2.07,2.07,0,0,1,110,313.24Z" style="fill:#e0e0e0"></path><path d="M85.51,335c-.14-.07,1-2.59,2-5.78s1.61-5.89,1.75-5.87a19.59,19.59,0,0,1-1.29,6,39.69,39.69,0,0,1-1.63,4A6.68,6.68,0,0,1,85.51,335Z" style="fill:#e0e0e0"></path><path d="M71,355.33a5.35,5.35,0,0,1-.81-.93l-2.07-2.65c-1.73-2.25-4.13-5.34-6.82-8.73s-5.16-6.43-7-8.63l-2.11-2.62a6.23,6.23,0,0,1-.73-1,6.32,6.32,0,0,1,.88.88c.53.58,1.3,1.44,2.23,2.52,1.86,2.14,4.37,5.15,7.07,8.54s5,6.53,6.72,8.83c.83,1.15,1.5,2.09,1.94,2.75A6.61,6.61,0,0,1,71,355.33Z" style="fill:#e0e0e0"></path><path d="M64.59,347.06a11.75,11.75,0,0,1-2.7-5.05,14.61,14.61,0,0,1-.61-5.1l.22,0c-.1.39-.17.59-.21.59s0-.23,0-.63l.22,0a23,23,0,0,0,.86,5A37.93,37.93,0,0,0,64.59,347.06Z" style="fill:#e0e0e0"></path><path d="M56.27,336.59a8.47,8.47,0,0,0-1.88-1.09,12.55,12.55,0,0,0-5.24-.42,34,34,0,0,0-5.27.85,15.3,15.3,0,0,1-2.17.52,8.11,8.11,0,0,1,2.08-.85,24.14,24.14,0,0,1,5.33-1,11.49,11.49,0,0,1,5.4.58A3.26,3.26,0,0,1,56.27,336.59Z" style="fill:#e0e0e0"></path><path d="M54.3,334.06c0,.07-1.1-.44-2.89-1.05a28.85,28.85,0,0,0-14.55-1.11c-1.86.33-3,.68-3,.6a2.9,2.9,0,0,1,.77-.33,17.36,17.36,0,0,1,2.18-.61,25.64,25.64,0,0,1,7.45-.52,26,26,0,0,1,7.29,1.64,17.35,17.35,0,0,1,2.06.94C54.06,333.87,54.32,334,54.3,334.06Z" style="fill:#e0e0e0"></path><path d="M71,323.33a59.8,59.8,0,0,1-2.1-7.32,58.94,58.94,0,0,1-1.64-7.43,60.82,60.82,0,0,1,2.11,7.32A59.87,59.87,0,0,1,71,323.33Z" style="fill:#e0e0e0"></path><path d="M71.11,323.33A35.93,35.93,0,0,0,68.77,319a20.27,20.27,0,0,0-3.43-3.55,3.2,3.2,0,0,1,1.32.69,10.67,10.67,0,0,1,2.51,2.58A9.75,9.75,0,0,1,71.11,323.33Z" style="fill:#e0e0e0"></path><path d="M71,419.73c-.06,0-.15-.8-.53-2.23a32.1,32.1,0,0,0-2.25-5.83,80.44,80.44,0,0,0-11.93-16.8c-2.66-3-5.24-5.91-7.43-8.66a58.86,58.86,0,0,1-5.32-7.67,35.88,35.88,0,0,1-2.69-5.69c-.25-.7-.43-1.25-.53-1.63a2.38,2.38,0,0,1-.13-.58s.28.77.84,2.14a41,41,0,0,0,2.8,5.59,65.19,65.19,0,0,0,5.37,7.56c2.21,2.72,4.79,5.58,7.46,8.62,5.39,6.05,9.61,12.15,11.87,17a29,29,0,0,1,2.12,5.93,16.33,16.33,0,0,1,.3,1.69A3.28,3.28,0,0,1,71,419.73Z" style="fill:#e0e0e0"></path><path d="M97.57,389.73a10.67,10.67,0,0,1-1.39.78,31.21,31.21,0,0,0-3.61,2.39,40.5,40.5,0,0,0-4.75,4.33c-1.66,1.76-3.38,3.8-5.13,6-3.49,4.39-6.77,8.28-8.72,11.38-1,1.54-1.72,2.83-2.2,3.74a11.39,11.39,0,0,1-.76,1.4s0-.14.13-.39.24-.63.46-1.09a37.16,37.16,0,0,1,2.07-3.84,124.5,124.5,0,0,1,8.65-11.5c1.75-2.19,3.48-4.24,5.18-6a37.66,37.66,0,0,1,4.86-4.29,24.64,24.64,0,0,1,3.73-2.28c.46-.23.84-.38,1.09-.48A1.39,1.39,0,0,1,97.57,389.73Z" style="fill:#e0e0e0"></path><path d="M98.09,399.47a21.65,21.65,0,0,1-2.94.42,39,39,0,0,0-7,1.38,20.89,20.89,0,0,0-6.25,3.28c-1.44,1.11-2.12,2-2.19,2a2.33,2.33,0,0,1,.44-.68,11.26,11.26,0,0,1,1.53-1.57A19,19,0,0,1,88,400.81a31.48,31.48,0,0,1,7.09-1.26A15.5,15.5,0,0,1,98.09,399.47Z" style="fill:#e0e0e0"></path><path d="M80.59,405.46c-.15-.09,1.17-2.11,2.2-4.84s1.19-5.16,1.37-5.13a4.76,4.76,0,0,1,0,1.58,16.1,16.1,0,0,1-2.57,7.13A4.6,4.6,0,0,1,80.59,405.46Z" style="fill:#e0e0e0"></path><path d="M106.17,363.6a1.66,1.66,0,0,1-.47.25l-1.38.63c-.61.26-1.34.59-2.17,1s-1.8.87-2.81,1.48l-1.61.91c-.56.32-1.11.7-1.69,1.07-1.19.71-2.37,1.6-3.64,2.5a62.45,62.45,0,0,0-14,14.48c-.86,1.3-1.7,2.51-2.38,3.72-.35.6-.71,1.16-1,1.73s-.58,1.11-.86,1.63c-.57,1-1,2-1.38,2.86s-.71,1.59-1,2.21-.42,1-.58,1.4A2.81,2.81,0,0,1,71,400a1.76,1.76,0,0,1,.14-.51l.5-1.44c.21-.63.49-1.39.87-2.24s.77-1.86,1.33-2.91l.83-1.66c.3-.57.65-1.15,1-1.75.67-1.23,1.5-2.46,2.36-3.77a59.84,59.84,0,0,1,14.1-14.59c1.28-.9,2.48-1.78,3.68-2.48.6-.37,1.16-.74,1.72-1.05l1.63-.9c1-.59,2-1,2.86-1.42s1.59-.72,2.21-.95l1.42-.55A2.59,2.59,0,0,1,106.17,363.6Z" style="fill:#e0e0e0"></path><path d="M85.15,377.69A3.4,3.4,0,0,1,86.3,376,7.3,7.3,0,0,1,91,374.18a12.8,12.8,0,0,1,4.9,1,6.78,6.78,0,0,1,1.86.9,11,11,0,0,1-2-.58,15,15,0,0,0-4.77-.79,7.53,7.53,0,0,0-4.45,1.56A14.12,14.12,0,0,0,85.15,377.69Z" style="fill:#e0e0e0"></path><path d="M82,380.93a17.79,17.79,0,0,0,1.32-4.3,17,17,0,0,0-.3-4.49c.06,0,.32.43.55,1.25a9,9,0,0,1-.75,6.45A3,3,0,0,1,82,380.93Z" style="fill:#e0e0e0"></path><path d="M47.78,424.55c.72,12.86,4.59,25.93,10.55,39.15H84.24c5.68-13.09,9.29-26.14,9.93-39.15Z" style="fill:#e0e0e0"></path><path d="M90,445.35c0,.14-8.53.25-19,.25s-19.05-.11-19.05-.25,8.53-.24,19.05-.24S90,445.22,90,445.35Z" style="fill:#fafafa"></path><path d="M89.39,450c0,.14-8,.24-17.86.24s-17.86-.1-17.86-.24,8-.24,17.86-.24S89.39,449.88,89.39,450Z" style="fill:#fafafa"></path><path d="M58.75,433a74.37,74.37,0,0,1,0,11.94,74.37,74.37,0,0,1,0-11.94Z" style="fill:#fafafa"></path><path d="M72.63,433a76.51,76.51,0,0,1,0,12.36,79.69,79.69,0,0,1,0-12.36Z" style="fill:#fafafa"></path><path d="M85.66,432.89a79.63,79.63,0,0,1,0,12.61,82.94,82.94,0,0,1,0-12.61Z" style="fill:#fafafa"></path><path d="M93.35,433c0,.14-10,.25-22.35.25s-22.34-.11-22.34-.25,10-.24,22.34-.24S93.35,432.86,93.35,433Z" style="fill:#fafafa"></path></g><g id="freepik--Floor--inject-64"><path d="M480.22,466.45c0,.14-101.8.26-227.33.26s-227.35-.12-227.35-.26,101.77-.26,227.35-.26S480.22,466.3,480.22,466.45Z" style="fill:#263238"></path></g><g id="freepik--Bags--inject-64"><rect x="385.15" y="363.59" width="90.11" height="102.85" style="fill:#455a64"></rect><g style="opacity:0.30000000000000004"><rect x="461.46" y="363.59" width="13.79" height="102.85"></rect></g><path d="M453.75,364.48a4.47,4.47,0,0,1-.37.67c-.26.43-.63,1.06-1.14,1.86a56.07,56.07,0,0,1-4.91,6.35,41.17,41.17,0,0,1-9.16,7.6,26,26,0,0,1-27.88.07,41.28,41.28,0,0,1-9.18-7.58,54.69,54.69,0,0,1-4.93-6.34c-.51-.79-.88-1.43-1.14-1.85a3.53,3.53,0,0,1-.37-.67,5,5,0,0,1,.46.61l1.22,1.8a61.4,61.4,0,0,0,5,6.2,41.63,41.63,0,0,0,9.15,7.41,25.79,25.79,0,0,0,27.4-.06,41.77,41.77,0,0,0,9.13-7.44,62,62,0,0,0,5-6.21l1.22-1.8A4.56,4.56,0,0,1,453.75,364.48Z" style="fill:#263238"></path><polygon points="422.27 466.04 329.38 466.04 340.87 378.15 410.58 378.15 422.27 466.04" style="fill:#263238"></polygon><polygon points="454.21 466.45 375.82 466.04 385.02 401.81 444.52 401.81 454.21 466.45" style="fill:#246BFD"></polygon><polygon points="444.52 401.81 452.43 401.81 467.36 466.45 452.43 466.45 444.52 401.81" style="fill:#246BFD"></polygon><g style="opacity:0.30000000000000004"><polygon points="444.52 401.81 452.43 401.81 467.36 466.45 452.43 466.45 444.52 401.81"></polygon></g><rect x="399.58" y="436.66" width="31.62" height="7.64" style="fill:#fff"></rect><path d="M436.19,402.17a.87.87,0,0,1,0,.24c0,.18,0,.4,0,.68,0,.59-.12,1.47-.24,2.6a69.07,69.07,0,0,1-1.6,9.49,50.49,50.49,0,0,1-2,6.36c-.45,1.11-.93,2.25-1.5,3.39a24,24,0,0,1-2,3.42,23.45,23.45,0,0,1-6,6,16.43,16.43,0,0,1-4,2,13.24,13.24,0,0,1-4.62.56,17.19,17.19,0,0,1-8.58-2.94,22.07,22.07,0,0,1-5.91-6.06,45.32,45.32,0,0,1-5.65-13.1,67.94,67.94,0,0,1-1.77-9.46c-.14-1.13-.22-2-.28-2.6,0-.28,0-.5,0-.68v-.24a.79.79,0,0,1,.06.23l.1.67c.09.64.21,1.5.37,2.59a75.1,75.1,0,0,0,1.93,9.39,45.52,45.52,0,0,0,5.69,12.93,21.8,21.8,0,0,0,5.79,5.91,16.74,16.74,0,0,0,8.33,2.84,12.69,12.69,0,0,0,4.44-.53,16.24,16.24,0,0,0,3.91-1.95,23.82,23.82,0,0,0,7.87-9.16c.57-1.13,1.06-2.26,1.51-3.35a49.71,49.71,0,0,0,2-6.29,79.16,79.16,0,0,0,1.76-9.42l.33-2.59.1-.68A2.32,2.32,0,0,1,436.19,402.17Z" style="fill:#263238"></path><path d="M448.55,401.81c.14,0,2.8,14.39,5.94,32.19s5.57,32.26,5.43,32.29-2.8-14.39-5.94-32.2S448.4,401.84,448.55,401.81Z" style="fill:#263238"></path></g><g id="freepik--speech-bubble--inject-64"><path d="M89.25,111.8l-5.62-9.9A26.53,26.53,0,1,0,77.27,109h0Z" style="fill:#fff"></path><path d="M89.25,111.8l-12-2.74-.12,0,.08-.1v0l.12.12a26.3,26.3,0,0,1-12.71,5.36,24.12,24.12,0,0,1-4.2.22c-.72,0-1.45-.06-2.19-.12L56,114.15a26.77,26.77,0,0,1-16.56-10.63,26.39,26.39,0,0,1-4.48-10.24,26.88,26.88,0,0,1,.31-11.79,26.16,26.16,0,0,1,5.68-10.9L42,69.4c.36-.4.78-.73,1.17-1.1s.77-.74,1.2-1l1.27-1A11.57,11.57,0,0,1,47,65.43l1.34-.81,1.41-.69a12.79,12.79,0,0,1,1.42-.63A26.94,26.94,0,0,1,63,61.48a26,26,0,0,1,10.9,3.22A26.87,26.87,0,0,1,86.5,80.18a28.46,28.46,0,0,1,1.15,8.62,26.21,26.21,0,0,1-1.3,7.44,27,27,0,0,1-2.65,5.7v-.08c3.54,6.34,5.26,9.44,5.55,9.94l-5.69-9.86,0,0,0-.05a26.32,26.32,0,0,0,3.86-13.06,28.59,28.59,0,0,0-1.17-8.54A26.6,26.6,0,0,0,73.77,65,25.72,25.72,0,0,0,63,61.8a26.69,26.69,0,0,0-11.73,1.81,12.64,12.64,0,0,0-1.41.63l-1.39.67-1.32.81a9.44,9.44,0,0,0-1.3.86l-1.26.94c-.43.3-.79.69-1.19,1s-.8.69-1.15,1.09l-1.06,1.17a25.93,25.93,0,0,0-5.62,10.76,26.7,26.7,0,0,0-.31,11.65,26.18,26.18,0,0,0,4.41,10.12A26.57,26.57,0,0,0,56,113.89l2.21.34c.74.06,1.46.08,2.18.12a23.75,23.75,0,0,0,4.16-.19,26.54,26.54,0,0,0,7.21-2,27.05,27.05,0,0,0,5.43-3.23l.51-.39-.39.51h0l0-.13Z" style="fill:#263238"></path><path d="M62.62,96.1v3H60.46V96.13A11.51,11.51,0,0,1,54,93.94l1.18-2.66a10.16,10.16,0,0,0,5.28,2V88c-2.93-.71-6.07-1.66-6.07-5.33,0-2.69,2-5,6.07-5.43v-3h2.16V77.2A11.15,11.15,0,0,1,68,78.81l-1.08,2.66A10.9,10.9,0,0,0,62.62,80v5.33c2.93.71,6.12,1.64,6.12,5.3C68.74,93.36,66.76,95.68,62.62,96.1ZM60.46,84.82v-4.7c-1.87.29-2.66,1.24-2.66,2.4S58.93,84.37,60.46,84.82Zm4.9,6.09c0-1.29-1.16-1.9-2.74-2.35v4.67C64.55,92.94,65.36,92,65.36,90.91Z" style="fill:#263238"></path></g><g id="freepik--Receipt--inject-64"><polygon points="371.22 63.99 355.2 50.43 339.19 63.99 323.18 50.43 307.17 63.99 291.17 50.43 275.16 63.99 259.15 50.43 243.15 63.99 227.13 50.43 211.13 63.99 195.12 50.43 179.12 63.99 163.11 50.43 163.11 64.88 163.11 72.19 163.11 444.28 163.11 445.9 163.11 466.04 179.13 452.48 195.15 466.04 211.16 452.48 227.17 466.04 243.18 452.48 259.18 466.04 275.19 452.48 291.2 466.04 307.21 452.48 323.22 466.04 339.22 452.48 355.23 466.04 371.23 452.48 387.24 466.04 387.24 451.6 387.24 445.9 387.24 444.28 387.24 72.19 387.24 64.88 387.24 50.43 371.22 63.99" style="fill:#fafafa"></polygon><path d="M371.22,64l16-13.61.1-.08v.13c0,50.59.09,206.65.18,415.61v.52l-.39-.34-16-13.55h.31l-16,13.56-.16.13-.16-.13-16-13.56h.32l-16,13.56-.16.14-.17-.14-16-13.56h.33l-16,13.57-.16.14-.16-.14-16-13.56h.33l-16,13.56-.17.14-.16-.14-16-13.56h.34l-16,13.56-.17.14-.17-.14-16-13.56h.34l-16,13.56-.17.14-.17-.14L179,452.7l0,0h.34l-16,13.56-.43.36V466c0-158.93,0-304.4.06-415.61V50l.33.28,16,13.57H179l16-13.56.12-.1.13.1c5.77,4.9,10.94,9.29,16,13.57H211L227,50.3l.11-.1.12.1,16,13.56H243l16-13.55.1-.09.1.09,16,13.57h-.18l16-13.55.09-.08.08.08,16,13.57h-.15l16-13.55.07-.06.07.06,16,13.57h-.11l16-13.54,0,0,0,0,16,13.61L355.16,50.47h.08l-16,13.58-.06,0-.05,0-16-13.54h.14l-16,13.57-.08.07-.07-.07-16-13.55h.17l-16,13.57-.09.08-.09-.08-16-13.55h.2l-16,13.57-.11.09-.1-.09L227,50.56h.23l-16,13.57-.12.1-.12-.1L195,50.57h.25l-16,13.57-.12.11-.13-.11L163,50.58l.33-.15c0,111.21,0,256.68.06,415.61l-.43-.2,16-13.56.17-.14.17.14,0,0,16,13.54H195l16-13.56.17-.14.17.14c5.49,4.66,11,9.3,16,13.56H227l16-13.56.17-.14.17.14,16,13.57H259c5.51-4.68,11-9.33,16-13.56l.16-.14.17.14,16,13.56H291l16-13.56.17-.14.16.14,16,13.56h-.32l16-13.56.16-.13.16.13,16,13.56h-.32l16-13.55.15-.14.16.14,16,13.56-.4.18c.09-209,.16-365,.18-415.61l.1,0Z" style="fill:#263238"></path><path d="M256.78,106.56l-1.58-2.27h-1.74v2.27h-1.88V98.4h3.53c2.18,0,3.54,1.13,3.54,3a2.66,2.66,0,0,1-1.68,2.58l1.83,2.62ZM255,99.94h-1.54v2.84H255c1.16,0,1.74-.53,1.74-1.42S256.16,99.94,255,99.94Z" style="fill:#263238"></path><path d="M266.47,105v1.52h-6.32V98.4h6.16v1.52H262v1.77h3.79v1.47H262V105Z" style="fill:#263238"></path><path d="M267.44,102.48a4.49,4.49,0,0,1,7.78-2.77L274,100.82a2.66,2.66,0,0,0-2.05-.95,2.61,2.61,0,1,0,0,5.22,2.58,2.58,0,0,0,2.05-1l1.21,1.12a4.48,4.48,0,0,1-7.78-2.76Z" style="fill:#263238"></path><path d="M282.81,105v1.52H276.5V98.4h6.16v1.52h-4.29v1.77h3.79v1.47h-3.79V105Z" style="fill:#263238"></path><path d="M284.32,98.4h1.89v8.16h-1.89Z" style="fill:#263238"></path><path d="M295.22,101.36c0,1.82-1.36,3-3.54,3H290v2.25h-1.89V98.4h3.54C293.86,98.4,295.22,99.53,295.22,101.36Zm-1.91,0c0-.9-.58-1.42-1.74-1.42H290v2.83h1.54C292.73,102.77,293.31,102.25,293.31,101.36Z" style="fill:#263238"></path><path d="M298,99.94h-2.61V98.4h7.11v1.54h-2.61v6.62H298Z" style="fill:#263238"></path><path d="M387.24,88c0,.14-50.18.26-112.06.26S163.11,88.16,163.11,88s50.17-.26,112.07-.26S387.24,87.87,387.24,88Z" style="fill:#263238"></path><path d="M387.24,116.88c0,.14-50.18.26-112.06.26s-112.07-.12-112.07-.26,50.17-.26,112.07-.26S387.24,116.74,387.24,116.88Z" style="fill:#263238"></path><path d="M244.32,131.49c0,.14-13.66.26-30.51.26s-30.53-.12-30.53-.26,13.67-.26,30.53-.26S244.32,131.35,244.32,131.49Z" style="fill:#263238"></path><path d="M168.88,147.36c0,.14-.56.26-1.25.26s-1.25-.12-1.25-.26.56-.26,1.25-.26S168.88,147.22,168.88,147.36Z" style="fill:#263238"></path><path d="M178.92,147.36a12.25,12.25,0,0,1-5,0,12.25,12.25,0,0,1,5,0Z" style="fill:#263238"></path><path d="M189,147.36a12.25,12.25,0,0,1-5,0,12.25,12.25,0,0,1,5,0Z" style="fill:#263238"></path><path d="M199,147.36a12.25,12.25,0,0,1-5,0,12.25,12.25,0,0,1,5,0Z" style="fill:#263238"></path><path d="M209,147.36a12.25,12.25,0,0,1-5,0,12.25,12.25,0,0,1,5,0Z" style="fill:#263238"></path><path d="M219.08,147.36a12.25,12.25,0,0,1-5,0,12.25,12.25,0,0,1,5,0Z" style="fill:#263238"></path><path d="M229.12,147.36a12.25,12.25,0,0,1-5,0,12.25,12.25,0,0,1,5,0Z" style="fill:#263238"></path><path d="M239.16,147.36a12.25,12.25,0,0,1-5,0,12.25,12.25,0,0,1,5,0Z" style="fill:#263238"></path><path d="M249.2,147.36a12.25,12.25,0,0,1-5,0,12.25,12.25,0,0,1,5,0Z" style="fill:#263238"></path><path d="M259.24,147.36a12.25,12.25,0,0,1-5,0,12.25,12.25,0,0,1,5,0Z" style="fill:#263238"></path><path d="M269.28,147.36a12.25,12.25,0,0,1-5,0,12.25,12.25,0,0,1,5,0Z" style="fill:#263238"></path><path d="M279.32,147.36a12.25,12.25,0,0,1-5,0,12.25,12.25,0,0,1,5,0Z" style="fill:#263238"></path><path d="M289.36,147.36a12.25,12.25,0,0,1-5,0,12.25,12.25,0,0,1,5,0Z" style="fill:#263238"></path><path d="M299.4,147.36a12.25,12.25,0,0,1-5,0,12.25,12.25,0,0,1,5,0Z" style="fill:#263238"></path><path d="M309.44,147.36a12.25,12.25,0,0,1-5,0,12.25,12.25,0,0,1,5,0Z" style="fill:#263238"></path><path d="M319.48,147.36a12.25,12.25,0,0,1-5,0,12.25,12.25,0,0,1,5,0Z" style="fill:#263238"></path><path d="M329.52,147.36a12.25,12.25,0,0,1-5,0,12.25,12.25,0,0,1,5,0Z" style="fill:#263238"></path><path d="M339.56,147.36a12.25,12.25,0,0,1-5,0,12.25,12.25,0,0,1,5,0Z" style="fill:#263238"></path><path d="M349.6,147.36a12.25,12.25,0,0,1-5,0,12.25,12.25,0,0,1,5,0Z" style="fill:#263238"></path><path d="M359.64,147.36a12.25,12.25,0,0,1-5,0,12.25,12.25,0,0,1,5,0Z" style="fill:#263238"></path><path d="M369.68,147.36a12.25,12.25,0,0,1-5,0,12.25,12.25,0,0,1,5,0Z" style="fill:#263238"></path><path d="M379.72,147.36a12.25,12.25,0,0,1-5,0,12.25,12.25,0,0,1,5,0Z" style="fill:#263238"></path><ellipse cx="385.99" cy="147.36" rx="1.25" ry="0.26" style="fill:#263238"></ellipse><path d="M183.32,170.25v9.49h-1.77v-8h-2v-1.48Z" style="fill:#263238"></path><path d="M190.33,179.74l-1.86-2.51-1.87,2.51h-1.88l2.83-3.67-2.7-3.57h1.88l1.78,2.37,1.78-2.37h1.83L189.4,176l2.84,3.7Z" style="fill:#263238"></path><path d="M187.31,199.31v1.49h-7v-1.18l3.77-3.58c.92-.88,1.08-1.44,1.08-2,0-.86-.59-1.37-1.76-1.37a2.7,2.7,0,0,0-2.22,1l-1.24-.95a4.38,4.38,0,0,1,3.61-1.57c2.06,0,3.39,1,3.39,2.73,0,.92-.26,1.76-1.57,3l-2.54,2.42Z" style="fill:#263238"></path><path d="M193.38,200.8l-1.86-2.51-1.87,2.51h-1.87l2.82-3.67-2.7-3.57h1.89l1.78,2.37,1.77-2.37h1.83l-2.71,3.54,2.84,3.7Z" style="fill:#263238"></path><path d="M183.71,211.57v9.49H182v-8h-2v-1.48Z" style="fill:#263238"></path><path d="M190.72,221.06l-1.85-2.51L187,221.06h-1.87l2.82-3.67-2.7-3.57h1.89l1.78,2.37,1.77-2.37h1.84l-2.72,3.54,2.84,3.7Z" style="fill:#263238"></path><path d="M183.71,234.21v9.5H182v-8h-2v-1.48Z" style="fill:#263238"></path><path d="M190.72,243.71l-1.85-2.51L187,243.71h-1.87l2.82-3.68-2.7-3.56h1.89l1.78,2.37,1.77-2.37h1.84L189.8,240l2.84,3.7Z" style="fill:#263238"></path><path d="M182.42,267.39h-2.93V266H187v1.39h-2.93v7.46h-1.65Z" style="fill:#263238"></path><path d="M187.48,270.42a4.77,4.77,0,1,1,4.77,4.56A4.53,4.53,0,0,1,187.48,270.42Zm7.88,0a3.11,3.11,0,1,0-3.11,3.11A3,3,0,0,0,195.36,270.42Z" style="fill:#263238"></path><path d="M200.43,267.39H197.5V266H205v1.39h-2.93v7.46h-1.65Z" style="fill:#263238"></path><path d="M211.55,272.8h-4.43l-.87,2.05h-1.7l4-8.85h1.62l4,8.85h-1.72Zm-.54-1.29-1.67-3.87-1.66,3.87Z" style="fill:#263238"></path><path d="M215.28,266h1.64v7.46h4.63v1.39h-6.27Z" style="fill:#263238"></path><path d="M180,288.37a4.79,4.79,0,0,1,8.25-3.07l-1.06,1a3.1,3.1,0,0,0-2.37-1,3.11,3.11,0,1,0,0,6.22,3.08,3.08,0,0,0,2.37-1.05l1.06,1a4.47,4.47,0,0,1-3.52,1.49A4.52,4.52,0,0,1,180,288.37Z" style="fill:#263238"></path><path d="M195.37,290.75H191l-.88,2.05h-1.69l4-8.86H194l4,8.86h-1.72Zm-.54-1.29-1.67-3.87-1.66,3.87Z" style="fill:#263238"></path><path d="M198.36,291.86l.57-1.28a4.9,4.9,0,0,0,2.92,1c1.38,0,2-.5,2-1.15,0-1.91-5.26-.66-5.26-4,0-1.43,1.14-2.64,3.56-2.64a5.64,5.64,0,0,1,2.95.78l-.52,1.28a4.89,4.89,0,0,0-2.44-.7c-1.36,0-1.92.53-1.92,1.21,0,1.88,5.25.65,5.25,3.9,0,1.42-1.15,2.64-3.58,2.64A5.71,5.71,0,0,1,198.36,291.86Z" style="fill:#263238"></path><path d="M214.93,283.94v8.86h-1.65V289H208.7v3.8h-1.64v-8.86h1.64v3.66h4.58v-3.66Z" style="fill:#263238"></path><path d="M180,306.09a4.79,4.79,0,0,1,8.25-3.08l-1.06,1a3.13,3.13,0,0,0-2.37-1,3.11,3.11,0,1,0,0,6.22,3.08,3.08,0,0,0,2.37-1.05l1.06,1a4.79,4.79,0,0,1-8.25-3.07Z" style="fill:#263238"></path><path d="M197.69,301.66v8.86H196v-3.8h-4.58v3.8h-1.64v-8.86h1.64v3.66H196v-3.66Z" style="fill:#263238"></path><path d="M205.81,308.47h-4.43l-.87,2h-1.7l4-8.86h1.62l4,8.86h-1.72Zm-.55-1.29-1.67-3.87-1.65,3.87Z" style="fill:#263238"></path><path d="M217.41,301.66v8.86h-1.36l-4.88-6v6h-1.63v-8.86h1.35l4.88,6v-6Z" style="fill:#263238"></path><path d="M225.83,306h1.55v3.53a5.62,5.62,0,0,1-3.46,1.12,4.56,4.56,0,1,1,0-9.11A4.59,4.59,0,0,1,227.5,303l-1,1a3.25,3.25,0,0,0-2.44-1,3.11,3.11,0,1,0,0,6.22,3.67,3.67,0,0,0,1.82-.45Z" style="fill:#263238"></path><path d="M236.19,309.14v1.38h-6.64v-8.86H236V303h-4.82v2.3h4.28v1.36h-4.28v2.44Z" style="fill:#263238"></path><path d="M384.61,343.48c0,.15-48.86.26-109.11.26s-109.12-.11-109.12-.26,48.85-.26,109.12-.26S384.61,343.34,384.61,343.48Z" style="fill:#263238"></path><path d="M384.61,378.15c0,.14-48.24.26-107.74.26s-107.75-.12-107.75-.26,48.23-.26,107.75-.26S384.61,378,384.61,378.15Z" style="fill:#263238"></path><path d="M234,358.23h-3v-1.75h8.08v1.75h-3v7.53H234Z" style="fill:#263238"></path><path d="M248.75,356.48v9.28H246.6V362h-4.22v3.8h-2.14v-9.28h2.14v3.66h4.22v-3.66Z" style="fill:#263238"></path><path d="M257.06,363.77h-4.31l-.82,2h-2.2l4.13-9.28H256l4.15,9.28h-2.25Zm-.68-1.63-1.47-3.55-1.47,3.55Z" style="fill:#263238"></path><path d="M269.61,356.48v9.28h-1.76l-4.63-5.63v5.63H261.1v-9.28h1.78l4.61,5.64v-5.64Z" style="fill:#263238"></path><path d="M275.19,362.12l-1.25,1.3v2.34h-2.13v-9.28h2.13v4.34l4.12-4.34h2.38l-3.84,4.14,4.07,5.14h-2.51Z" style="fill:#263238"></path><path d="M289.83,362.48v3.28h-2.15v-3.31l-3.6-6h2.28l2.48,4.13,2.48-4.13h2.11Z" style="fill:#263238"></path><path d="M293.35,361.12a5.09,5.09,0,1,1,5.08,4.8A4.8,4.8,0,0,1,293.35,361.12Zm8,0a2.9,2.9,0,1,0-2.9,3A2.83,2.83,0,0,0,301.33,361.12Z" style="fill:#263238"></path><path d="M305,361.68v-5.2h2.15v5.12c0,1.76.77,2.49,2.07,2.49s2.07-.73,2.07-2.49v-5.12h2.12v5.2c0,2.73-1.57,4.24-4.21,4.24S305,364.41,305,361.68Z" style="fill:#263238"></path><path d="M315.12,364.66a1.27,1.27,0,0,1,2.54,0,1.27,1.27,0,0,1-2.54,0Zm0-8.18h2.46l-.41,6.06h-1.64Z" style="fill:#263238"></path><rect x="207.79" y="391.79" width="2.03" height="41.31" style="fill:#263238"></rect><rect x="211.34" y="391.79" width="4.21" height="41.31" style="fill:#263238"></rect><rect x="217.54" y="391.79" width="1.13" height="41.31" style="fill:#263238"></rect><rect x="250.61" y="391.79" width="1.13" height="41.31" style="fill:#263238"></rect><rect x="225.55" y="391.79" width="1.13" height="41.31" style="fill:#263238"></rect><rect x="234.7" y="391.79" width="0.56" height="41.31" style="fill:#263238"></rect><rect x="239.94" y="391.79" width="0.56" height="41.31" style="fill:#263238"></rect><rect x="268.32" y="391.79" width="0.56" height="41.31" style="fill:#263238"></rect><rect x="266.18" y="391.79" width="0.56" height="41.31" style="fill:#263238"></rect><rect x="254.33" y="391.79" width="0.56" height="41.31" style="fill:#263238"></rect><rect x="220.47" y="391.79" width="1.88" height="41.31" style="fill:#263238"></rect><rect x="237.04" y="391.79" width="1.88" height="41.31" style="fill:#263238"></rect><rect x="276.98" y="391.79" width="1.88" height="41.31" style="fill:#263238"></rect><rect x="242.27" y="391.79" width="1.47" height="41.31" style="fill:#263238"></rect><rect x="272.4" y="391.79" width="1.47" height="41.31" style="fill:#263238"></rect><rect x="258.34" y="391.79" width="1.47" height="41.31" style="fill:#263238"></rect><rect x="245.62" y="391.79" width="1.47" height="41.31" style="fill:#263238"></rect><rect x="229.11" y="391.79" width="3.66" height="41.31" style="fill:#263238"></rect><rect x="281.02" y="391.79" width="3.66" height="41.31" style="fill:#263238"></rect><rect x="339.13" y="391.79" width="2.03" height="41.31" transform="translate(680.28 824.89) rotate(180)" style="fill:#263238"></rect><rect x="333.39" y="391.79" width="4.21" height="41.31" transform="translate(670.98 824.89) rotate(180)" style="fill:#263238"></rect><rect x="330.27" y="391.79" width="1.13" height="41.31" transform="translate(661.66 824.89) rotate(180)" style="fill:#263238"></rect><rect x="297.2" y="391.79" width="1.13" height="41.31" transform="translate(595.52 824.89) rotate(180)" style="fill:#263238"></rect><rect x="322.25" y="391.79" width="1.13" height="41.31" transform="translate(645.63 824.89) rotate(180)" style="fill:#263238"></rect><rect x="313.67" y="391.79" width="0.56" height="41.31" transform="translate(627.91 824.89) rotate(180)" style="fill:#263238"></rect><rect x="308.43" y="391.79" width="0.56" height="41.31" transform="translate(617.43 824.89) rotate(180)" style="fill:#263238"></rect><rect x="294.04" y="391.79" width="0.56" height="41.31" transform="translate(588.64 824.89) rotate(180)" style="fill:#263238"></rect><rect x="326.58" y="391.79" width="1.88" height="41.31" transform="translate(655.04 824.89) rotate(180)" style="fill:#263238"></rect><rect x="310.02" y="391.79" width="1.88" height="41.31" transform="translate(621.92 824.89) rotate(180)" style="fill:#263238"></rect><rect x="305.2" y="391.79" width="1.47" height="41.31" transform="translate(611.87 824.89) rotate(180)" style="fill:#263238"></rect><rect x="289.12" y="391.79" width="1.47" height="41.31" transform="translate(579.71 824.89) rotate(180)" style="fill:#263238"></rect><rect x="301.85" y="391.79" width="1.47" height="41.31" transform="translate(605.16 824.89) rotate(180)" style="fill:#263238"></rect><rect x="316.16" y="391.79" width="3.66" height="41.31" transform="translate(635.99 824.89) rotate(180)" style="fill:#263238"></rect><path d="M317.86,179.85v1.52h-1.12v-1.5a6,6,0,0,1-3.32-1.13l.61-1.37a5.17,5.17,0,0,0,2.71,1v-2.71c-1.5-.37-3.12-.86-3.12-2.74,0-1.39,1-2.59,3.12-2.8v-1.53h1.12v1.51a5.81,5.81,0,0,1,2.75.82l-.56,1.37a5.61,5.61,0,0,0-2.19-.73v2.74c1.5.37,3.14.84,3.14,2.73C321,178.44,320,179.64,317.86,179.85Zm-1.12-5.8v-2.42c-1,.15-1.37.64-1.37,1.24S316,173.82,316.74,174.05Zm2.53,3.13c0-.66-.6-1-1.41-1.21v2.4C318.85,178.22,319.27,177.76,319.27,177.18Z" style="fill:#263238"></path><path d="M329,178.25v1.49h-7v-1.18l3.77-3.58c.92-.88,1.09-1.44,1.09-2,0-.87-.6-1.37-1.77-1.37a2.67,2.67,0,0,0-2.22,1l-1.24-.95a4.4,4.4,0,0,1,3.61-1.58c2.06,0,3.39,1,3.39,2.73,0,.92-.25,1.76-1.57,3l-2.54,2.41Z" style="fill:#263238"></path><path d="M336.87,176.83c0,1.67-1.21,3-3.76,3a6,6,0,0,1-3.57-1.1l.75-1.37a4.48,4.48,0,0,0,2.79.94c1.27,0,2-.56,2-1.45s-.58-1.48-2.55-1.48h-2.29l.49-5.17h5.57v1.48h-4.08l-.2,2.19h.9C335.74,173.92,336.87,175.15,336.87,176.83Z" style="fill:#263238"></path><path d="M340.05,178.71a2.93,2.93,0,0,1-.31,1.17l-.69,1.91H338l.54-2.07a1.12,1.12,0,0,1,.47-2.13A1.06,1.06,0,0,1,340.05,178.71Z" style="fill:#263238"></path><path d="M348.1,176.83c0,1.67-1.21,3-3.76,3a6,6,0,0,1-3.57-1.1l.75-1.37a4.48,4.48,0,0,0,2.79.94c1.26,0,2-.56,2-1.45s-.58-1.48-2.55-1.48h-2.29l.49-5.17h5.57v1.48h-4.08l-.21,2.19h.91C347,173.92,348.1,175.15,348.1,176.83Z" style="fill:#263238"></path><path d="M349.11,175c0-3.12,1.71-4.89,4-4.89s4,1.77,4,4.89-1.71,4.88-4,4.88S349.11,178.12,349.11,175Zm6.16,0c0-2.3-.89-3.35-2.2-3.35s-2.18,1-2.18,3.35.89,3.35,2.18,3.35S355.27,177.29,355.27,175Z" style="fill:#263238"></path><path d="M317.86,201.27v1.52h-1.12v-1.51a5.9,5.9,0,0,1-3.32-1.12l.61-1.37a5.25,5.25,0,0,0,2.71,1V197.1c-1.5-.36-3.12-.85-3.12-2.74,0-1.38,1-2.59,3.12-2.79V190h1.12v1.5a5.81,5.81,0,0,1,2.75.83l-.56,1.37a5.61,5.61,0,0,0-2.19-.73v2.74c1.5.36,3.14.84,3.14,2.72C321,199.86,320,201.05,317.86,201.27Zm-1.12-5.81v-2.41c-1,.15-1.37.64-1.37,1.23S316,195.23,316.74,195.46Zm2.53,3.14c0-.67-.6-1-1.41-1.21v2.4C318.85,199.64,319.27,199.18,319.27,198.6Z" style="fill:#263238"></path><path d="M329,199.67v1.49h-7V200l3.77-3.58c.92-.88,1.09-1.44,1.09-2,0-.87-.6-1.37-1.77-1.37a2.67,2.67,0,0,0-2.22,1l-1.24-1a4.4,4.4,0,0,1,3.61-1.57c2.06,0,3.39,1,3.39,2.73a3.77,3.77,0,0,1-1.57,3l-2.54,2.42Z" style="fill:#263238"></path><path d="M337.28,196.25c0,3.26-1.9,5.05-4.66,5.05a4.78,4.78,0,0,1-2.49-.61l.65-1.33a3.21,3.21,0,0,0,1.8.46c1.79,0,2.92-1.12,2.92-3.27v0a3.23,3.23,0,0,1-2.54,1,3,3,0,0,1-3.27-2.91,3.17,3.17,0,0,1,3.47-3.08C335.76,191.53,337.28,193.2,337.28,196.25Zm-2-1.74c0-.89-.71-1.6-2-1.6a1.65,1.65,0,0,0-1.86,1.62c0,1,.75,1.61,1.9,1.61A1.73,1.73,0,0,0,335.23,194.51Z" style="fill:#263238"></path><path d="M345.78,196.25c0,3.26-1.9,5.05-4.65,5.05a4.85,4.85,0,0,1-2.5-.61l.65-1.33a3.23,3.23,0,0,0,1.8.46c1.8,0,2.92-1.12,2.92-3.27v0a3.23,3.23,0,0,1-2.54,1,3,3,0,0,1-3.27-2.91c0-1.89,1.54-3.08,3.48-3.08C344.26,191.53,345.78,193.2,345.78,196.25Zm-2-1.74c0-.89-.71-1.6-2-1.6a1.65,1.65,0,0,0-1.86,1.62c0,1,.75,1.61,1.9,1.61A1.73,1.73,0,0,0,343.73,194.51Z" style="fill:#263238"></path><path d="M349,200.13a3,3,0,0,1-.32,1.17l-.69,1.91h-1.1l.55-2.08a1,1,0,0,1-.64-1,1.1,1.1,0,1,1,2.2,0Z" style="fill:#263238"></path><path d="M350,196.41c0-3.12,1.71-4.88,4-4.88s4,1.76,4,4.88-1.71,4.89-4,4.89S350,199.53,350,196.41Zm6.16,0c0-2.29-.89-3.35-2.2-3.35s-2.18,1.06-2.18,3.35.9,3.35,2.18,3.35S356.11,198.7,356.11,196.41Z" style="fill:#263238"></path><path d="M359.08,196.41c0-3.12,1.71-4.88,4-4.88s4,1.76,4,4.88-1.7,4.89-4,4.89S359.08,199.53,359.08,196.41Zm6.16,0c0-2.29-.9-3.35-2.2-3.35s-2.18,1.06-2.18,3.35.89,3.35,2.18,3.35S365.24,198.7,365.24,196.41Z" style="fill:#263238"></path><path d="M318.58,222v1.52h-1.11V222a5.9,5.9,0,0,1-3.32-1.13l.61-1.37a5.17,5.17,0,0,0,2.71,1v-2.71c-1.5-.37-3.12-.86-3.12-2.74,0-1.38,1-2.59,3.12-2.79v-1.54h1.11v1.51a5.74,5.74,0,0,1,2.76.83l-.56,1.37a5.47,5.47,0,0,0-2.2-.74v2.74c1.51.37,3.15.84,3.15,2.73C321.73,220.59,320.71,221.79,318.58,222Zm-1.11-5.8v-2.42c-1,.15-1.37.64-1.37,1.24S316.68,216,317.47,216.2Zm2.52,3.13c0-.66-.59-1-1.41-1.21v2.41C319.57,220.38,320,219.91,320,219.33Z" style="fill:#263238"></path><path d="M329.47,219.05c0,1.6-1.2,3-3.75,3a6,6,0,0,1-3.57-1.1l.76-1.37a4.43,4.43,0,0,0,2.78.94c1.26,0,2-.56,2-1.44s-.63-1.41-2.07-1.41h-.86v-1.21l2.15-2.56h-4.31V212.4h6.47v1.18l-2.31,2.74A2.71,2.71,0,0,1,329.47,219.05Z" style="fill:#263238"></path><path d="M337.43,220.4v1.5h-7v-1.18l3.78-3.59c.92-.88,1.08-1.43,1.08-2,0-.87-.6-1.37-1.76-1.37a2.69,2.69,0,0,0-2.23,1l-1.23-.95a4.39,4.39,0,0,1,3.61-1.58c2.06,0,3.39,1.05,3.39,2.73,0,.92-.26,1.76-1.58,3L333,220.4Z" style="fill:#263238"></path><path d="M340.75,220.86a2.93,2.93,0,0,1-.31,1.17l-.69,1.91h-1.1l.54-2.07a1,1,0,0,1-.63-1,1.1,1.1,0,1,1,2.19,0Z" style="fill:#263238"></path><path d="M349.2,217c0,3.26-1.89,5.05-4.65,5.05a4.69,4.69,0,0,1-2.49-.61l.65-1.33a3.21,3.21,0,0,0,1.8.46c1.79,0,2.92-1.11,2.92-3.27h0a3.26,3.26,0,0,1-2.54,1,3,3,0,0,1-3.27-2.92,3.17,3.17,0,0,1,3.47-3.08C347.68,212.26,349.2,213.93,349.2,217Zm-2-1.73c0-.9-.71-1.6-2-1.6a1.65,1.65,0,0,0-1.86,1.61c0,1,.75,1.62,1.9,1.62A1.74,1.74,0,0,0,347.16,215.25Z" style="fill:#263238"></path><path d="M357.71,217c0,3.26-1.9,5.05-4.66,5.05a4.71,4.71,0,0,1-2.49-.61l.65-1.33a3.21,3.21,0,0,0,1.8.46c1.79,0,2.92-1.11,2.92-3.27h0a3.26,3.26,0,0,1-2.54,1,3,3,0,0,1-3.27-2.92c0-1.88,1.54-3.08,3.48-3.08C356.19,212.26,357.71,213.93,357.71,217Zm-2-1.73c0-.9-.71-1.6-2-1.6a1.65,1.65,0,0,0-1.86,1.61c0,1,.75,1.62,1.9,1.62A1.74,1.74,0,0,0,355.66,215.25Z" style="fill:#263238"></path><path d="M318.58,239.72v1.52h-1.11v-1.51a5.9,5.9,0,0,1-3.32-1.12l.61-1.37a5.25,5.25,0,0,0,2.71,1v-2.71c-1.5-.37-3.12-.86-3.12-2.74,0-1.39,1-2.6,3.12-2.8v-1.53h1.11V230a6,6,0,0,1,2.76.83l-.56,1.37a5.6,5.6,0,0,0-2.2-.73v2.74c1.51.37,3.15.84,3.15,2.73C321.73,238.31,320.71,239.5,318.58,239.72Zm-1.11-5.81V231.5c-1,.15-1.37.64-1.37,1.23S316.68,233.68,317.47,233.91Zm2.52,3.14c0-.67-.59-1-1.41-1.21v2.4C319.57,238.09,320,237.63,320,237.05Z" style="fill:#263238"></path><path d="M330.38,236.67a3.17,3.17,0,0,1-3.47,3.08c-2.59,0-4.11-1.67-4.11-4.72,0-3.26,1.9-5.05,4.65-5.05a4.75,4.75,0,0,1,2.5.61l-.65,1.33a3.24,3.24,0,0,0-1.81-.46c-1.79,0-2.91,1.11-2.91,3.27h0a3.26,3.26,0,0,1,2.53-1A3,3,0,0,1,330.38,236.67Zm-1.71.08c0-1-.74-1.61-1.9-1.61a1.72,1.72,0,0,0-1.92,1.62c0,.9.7,1.6,2,1.6A1.64,1.64,0,0,0,328.67,236.75Z" style="fill:#263238"></path><path d="M333.61,238.58a3.16,3.16,0,0,1-.31,1.17l-.7,1.91h-1.09l.54-2.08a1,1,0,0,1-.64-1,1.1,1.1,0,1,1,2.2,0Z" style="fill:#263238"></path><path d="M341.65,236.7c0,1.66-1.21,3.05-3.76,3.05a5.91,5.91,0,0,1-3.56-1.1l.74-1.37a4.49,4.49,0,0,0,2.8.94c1.26,0,2-.56,2-1.46s-.58-1.48-2.55-1.48H335l.49-5.16h5.57v1.48H337l-.2,2.19h.91C340.53,233.79,341.65,235,341.65,236.7Z" style="fill:#263238"></path><path d="M342.67,234.86c0-3.12,1.7-4.88,4-4.88s4,1.76,4,4.88-1.71,4.89-4,4.89S342.67,238,342.67,234.86Zm6.15,0c0-2.29-.89-3.35-2.19-3.35s-2.19,1.06-2.19,3.35.9,3.36,2.19,3.36S348.82,237.16,348.82,234.86Z" style="fill:#263238"></path><path d="M317.86,275v1.52h-1.12V275a5.9,5.9,0,0,1-3.32-1.12l.61-1.37a5.25,5.25,0,0,0,2.71,1v-2.72c-1.5-.36-3.12-.85-3.12-2.74,0-1.38,1-2.59,3.12-2.79v-1.53h1.12v1.5a5.93,5.93,0,0,1,2.75.83l-.56,1.37a5.61,5.61,0,0,0-2.19-.73v2.74c1.5.36,3.14.84,3.14,2.72C321,273.55,320,274.74,317.86,275Zm-1.12-5.81v-2.41c-1,.15-1.37.64-1.37,1.23S316,268.92,316.74,269.15Zm2.53,3.14c0-.67-.6-1-1.41-1.21v2.4C318.85,273.33,319.27,272.87,319.27,272.29Z" style="fill:#263238"></path><path d="M328.75,272c0,1.6-1.21,3-3.76,3a6,6,0,0,1-3.57-1.1l.76-1.37a4.43,4.43,0,0,0,2.78.93c1.26,0,2-.55,2-1.44s-.63-1.41-2.06-1.41H324v-1.2l2.15-2.57h-4.31v-1.48h6.47v1.18l-2.3,2.74C327.84,269.51,328.75,270.58,328.75,272Z" style="fill:#263238"></path><path d="M337.48,271.91A3.17,3.17,0,0,1,334,275c-2.59,0-4.11-1.67-4.11-4.73,0-3.25,1.9-5,4.65-5a4.75,4.75,0,0,1,2.5.61l-.66,1.33a3.21,3.21,0,0,0-1.8-.46c-1.79,0-2.92,1.11-2.92,3.27h0a3.26,3.26,0,0,1,2.54-1A3,3,0,0,1,337.48,271.91Zm-1.71.08c0-1-.75-1.62-1.9-1.62a1.74,1.74,0,0,0-1.93,1.63c0,.9.71,1.6,2,1.6A1.65,1.65,0,0,0,335.77,272Z" style="fill:#263238"></path><path d="M345.14,272c0,1.6-1.21,3-3.76,3a6,6,0,0,1-3.56-1.1l.76-1.37a4.39,4.39,0,0,0,2.78.93c1.26,0,2-.55,2-1.44s-.62-1.41-2.06-1.41h-.87v-1.2l2.16-2.57h-4.31v-1.48h6.47v1.18l-2.31,2.74C344.23,269.51,345.14,270.58,345.14,272Z" style="fill:#263238"></path><path d="M348.46,273.82a3.16,3.16,0,0,1-.31,1.17l-.69,1.91h-1.1l.54-2.08a1,1,0,0,1-.64-1,1.1,1.1,0,1,1,2.2,0Z" style="fill:#263238"></path><path d="M356.91,269.94c0,3.25-1.9,5.05-4.65,5.05a4.85,4.85,0,0,1-2.5-.61l.65-1.33a3.24,3.24,0,0,0,1.81.46c1.79,0,2.92-1.12,2.92-3.27v0a3.23,3.23,0,0,1-2.54,1,3,3,0,0,1-3.27-2.91c0-1.89,1.53-3.08,3.47-3.08C355.39,265.22,356.91,266.89,356.91,269.94Zm-2.05-1.74c0-.89-.7-1.6-2-1.6a1.65,1.65,0,0,0-1.86,1.62c0,1,.74,1.61,1.9,1.61A1.72,1.72,0,0,0,354.86,268.2Z" style="fill:#263238"></path><path d="M365.41,269.94c0,3.25-1.89,5.05-4.65,5.05a4.78,4.78,0,0,1-2.49-.61l.65-1.33a3.21,3.21,0,0,0,1.8.46c1.79,0,2.92-1.12,2.92-3.27v0a3.23,3.23,0,0,1-2.54,1,3,3,0,0,1-3.27-2.91c0-1.89,1.53-3.08,3.47-3.08C363.89,265.22,365.41,266.89,365.41,269.94Zm-2-1.74c0-.89-.71-1.6-2-1.6a1.65,1.65,0,0,0-1.86,1.62c0,1,.75,1.61,1.9,1.61A1.73,1.73,0,0,0,363.37,268.2Z" style="fill:#263238"></path><path d="M317.86,292.91v1.52h-1.12v-1.51a5.9,5.9,0,0,1-3.32-1.13l.61-1.37a5.17,5.17,0,0,0,2.71,1v-2.72c-1.5-.36-3.12-.85-3.12-2.74,0-1.38,1-2.59,3.12-2.79v-1.53h1.12v1.5a5.7,5.7,0,0,1,2.75.83l-.56,1.37a5.61,5.61,0,0,0-2.19-.73v2.74c1.5.36,3.14.84,3.14,2.72C321,291.5,320,292.69,317.86,292.91Zm-1.12-5.81v-2.41c-1,.15-1.37.63-1.37,1.23S316,286.87,316.74,287.1Zm2.53,3.13c0-.66-.6-1-1.41-1.2v2.4C318.85,291.28,319.27,290.82,319.27,290.23Z" style="fill:#263238"></path><path d="M330.67,290.64H329v2.16h-1.71v-2.16h-5.21v-1.22l4.68-6.12h1.89l-4.41,5.85h3.1v-1.91H329v1.91h1.68Z" style="fill:#263238"></path><path d="M331.41,288.05c0-3.12,1.71-4.88,4-4.88s4,1.76,4,4.88-1.71,4.88-4,4.88S331.41,291.17,331.41,288.05Zm6.16,0c0-2.29-.89-3.35-2.19-3.35s-2.19,1.06-2.19,3.35.9,3.35,2.19,3.35S337.57,290.34,337.57,288.05Z" style="fill:#263238"></path><path d="M340.54,288.05c0-3.12,1.71-4.88,4-4.88s4,1.76,4,4.88-1.71,4.88-4,4.88S340.54,291.17,340.54,288.05Zm6.16,0c0-2.29-.9-3.35-2.2-3.35s-2.18,1.06-2.18,3.35.89,3.35,2.18,3.35S346.7,290.34,346.7,288.05Z" style="fill:#263238"></path><path d="M351.68,291.77a3,3,0,0,1-.32,1.16l-.69,1.92h-1.1l.54-2.08a1,1,0,0,1-.63-1,1.1,1.1,0,1,1,2.2,0Z" style="fill:#263238"></path><path d="M352.65,288.05c0-3.12,1.71-4.88,4-4.88s4,1.76,4,4.88-1.71,4.88-4,4.88S352.65,291.17,352.65,288.05Zm6.16,0c0-2.29-.9-3.35-2.2-3.35s-2.18,1.06-2.18,3.35.89,3.35,2.18,3.35S358.81,290.34,358.81,288.05Z" style="fill:#263238"></path><path d="M361.78,288.05c0-3.12,1.71-4.88,4-4.88s4,1.76,4,4.88-1.71,4.88-4,4.88S361.78,291.17,361.78,288.05Zm6.16,0c0-2.29-.9-3.35-2.2-3.35s-2.19,1.06-2.19,3.35.9,3.35,2.19,3.35S367.94,290.34,367.94,288.05Z" style="fill:#263238"></path><path d="M317.86,310.63v1.51h-1.12v-1.5a5.9,5.9,0,0,1-3.32-1.13l.61-1.37a5.08,5.08,0,0,0,2.71,1v-2.71c-1.5-.36-3.12-.85-3.12-2.74,0-1.38,1-2.59,3.12-2.79v-1.54h1.12v1.51a5.7,5.7,0,0,1,2.75.83l-.56,1.37a5.81,5.81,0,0,0-2.19-.74v2.74c1.5.37,3.14.85,3.14,2.73C321,309.21,320,310.41,317.86,310.63Zm-1.12-5.81V302.4c-1,.15-1.37.64-1.37,1.24S316,304.59,316.74,304.82Zm2.53,3.13c0-.66-.6-1-1.41-1.2v2.4C318.85,309,319.27,308.54,319.27,308Z" style="fill:#263238"></path><path d="M328.75,307.67c0,1.6-1.21,3-3.76,3a5.92,5.92,0,0,1-3.57-1.1l.76-1.37a4.43,4.43,0,0,0,2.78.94c1.26,0,2-.56,2-1.44s-.63-1.41-2.06-1.41H324v-1.21l2.15-2.56h-4.31V301h6.47v1.18l-2.3,2.74A2.71,2.71,0,0,1,328.75,307.67Z" style="fill:#263238"></path><path d="M337.48,307.57c0,1.89-1.53,3.08-3.47,3.08-2.59,0-4.11-1.67-4.11-4.72,0-3.25,1.9-5,4.65-5a4.75,4.75,0,0,1,2.5.61l-.66,1.33a3.21,3.21,0,0,0-1.8-.47c-1.79,0-2.92,1.12-2.92,3.27v0a3.23,3.23,0,0,1,2.54-1A3,3,0,0,1,337.48,307.57Zm-1.71.08c0-1-.75-1.61-1.9-1.61a1.73,1.73,0,0,0-1.93,1.63c0,.89.71,1.6,2,1.6A1.65,1.65,0,0,0,335.77,307.65Z" style="fill:#263238"></path><path d="M340.71,309.49a3,3,0,0,1-.32,1.16l-.69,1.91h-1.1l.55-2.07a1,1,0,0,1-.64-1,1.1,1.1,0,1,1,2.2,0Z" style="fill:#263238"></path><path d="M341.68,305.77c0-3.12,1.71-4.88,4-4.88s4,1.76,4,4.88-1.71,4.88-4,4.88S341.68,308.89,341.68,305.77Zm6.16,0c0-2.29-.9-3.35-2.2-3.35s-2.18,1.06-2.18,3.35.89,3.35,2.18,3.35S347.84,308.06,347.84,305.77Z" style="fill:#263238"></path><path d="M354,301v9.5h-1.76v-8h-2V301Z" style="fill:#263238"></path><path d="M248.87,177.3c0,.15-11.11.26-24.81.26s-24.82-.11-24.82-.26,11.11-.26,24.82-.26S248.87,177.16,248.87,177.3Z" style="fill:#263238"></path><path d="M280.08,198.11c0,.14-17.77.26-39.67.26s-39.68-.12-39.68-.26,17.76-.26,39.68-.26S280.08,198,280.08,198.11Z" style="fill:#263238"></path><path d="M251.55,218.91c0,.14-11.38.26-25.41.26s-25.41-.12-25.41-.26,11.37-.26,25.41-.26S251.55,218.77,251.55,218.91Z" style="fill:#263238"></path><path d="M246.2,240.9c0,.14-8.65.26-19.32.26s-19.31-.12-19.31-.26,8.64-.26,19.31-.26S246.2,240.76,246.2,240.9Z" style="fill:#263238"></path></g></svg>